<svg version="1.1" viewBox="0.0 0.0 512.0 512.0" fill="none" stroke="none" stroke-linecap="square" stroke-miterlimit="10" xmlns:xlink="http://www.w3.org/1999/xlink" xmlns="http://www.w3.org/2000/svg"><clipPath id="p.0"><path d="m0 0l512.0 0l0 512.0l-512.0 0l0 -512.0z" clip-rule="nonzero"/></clipPath><g clip-path="url(#p.0)"><path fill="#000000" fill-opacity="0.0" d="m0 0l512.0 0l0 512.0l-512.0 0z" fill-rule="evenodd"/><defs><linearGradient id="p.1" gradientUnits="userSpaceOnUse" gradientTransform="matrix(13.759517107255917 0.0 0.0 13.759517107255917 0.0 0.0)" spreadMethod="pad" x1="4.166022313990083" y1="14.7517377590748" x2="4.165972390301071" y2="28.511254866240147"><stop offset="0.0" stop-color="#51ab2a"/><stop offset="1.0" stop-color="#93c47d"/></linearGradient></defs><path fill="url(#p.1)" d="m57.322456 297.63968l0 0c0 -52.280045 42.381363 -94.66141 94.661415 -94.66141l223.40157 0l0 0c25.105774 0 49.18329 9.973236 66.93573 27.725693c17.752472 17.752457 27.725708 41.82997 27.725708 66.935715l0 0l0 0c0 52.28006 -42.38138 94.66144 -94.66144 94.66144l-223.40157 0c-52.280052 0 -94.661415 -42.38138 -94.661415 -94.66144z" fill-rule="evenodd"/><path fill="#cc0101" d="m190.57149 182.63416l0 0l0 0c18.824112 0 36.877228 7.477844 50.18788 20.788498c13.310654 13.310654 20.788483 31.36377 20.788483 50.18788l0 138.6614c0 6.713867E-4 -5.187988E-4 0.0011901855 -0.001159668 0.0011901855l-141.95158 -0.0011901855l0 0c-6.5612793E-4 0 -0.0011825562 -5.187988E-4 -0.0011825562 -0.0011901855l0.0011825562 -138.66022l0 0c0 -39.199173 31.777206 -70.97638 70.97638 -70.97638z" fill-rule="evenodd"/><defs><linearGradient id="p.2" gradientUnits="userSpaceOnUse" gradientTransform="matrix(0.0 16.524912779774134 -16.524912779774134 0.0 0.0 0.0)" spreadMethod="pad" x1="23.73464675709144" y1="-23.021169510019618" x2="7.209733977746673" y2="-23.02128863342821"><stop offset="0.0" stop-color="#cc0000"/><stop offset="1.0" stop-color="#e06666"/></linearGradient></defs><path fill="url(#p.2)" d="m380.42282 249.54967l0 12.251968l0 0c0 34.58673 -13.739532 67.7569 -38.196045 92.21341c-24.456512 24.456512 -57.626648 38.196045 -92.213394 38.196045l-14.19899 0l0 0c-64.18126 0 -116.210464 -52.029205 -116.210464 -116.21048l0 -40.649918c0 -64.181274 52.029205 -116.21047 116.210464 -116.21047l14.19899 0l0 0c72.02315 0 130.40944 58.3863 130.40944 130.40945z" fill-rule="evenodd"/><defs><linearGradient id="p.3" gradientUnits="userSpaceOnUse" gradientTransform="matrix(13.759487302036165 0.0 0.0 13.759487302036165 0.0 0.0)" spreadMethod="pad" x1="3.049096283783843" y1="14.792441960589242" x2="3.0490463599866886" y2="28.551929262534838"><stop offset="0.0" stop-color="#0000ff"/><stop offset="1.0" stop-color="#3d85c6"/></linearGradient></defs><path fill="url(#p.3)" d="m41.954 298.1985l0 0c0 -52.280045 40.865475 -94.66141 91.27559 -94.66141l0 0c24.207794 0 47.424103 9.973221 64.541595 27.725693c17.117493 17.752457 26.734009 41.82994 26.734009 66.935715l0 0c0 52.28006 -40.86548 94.66144 -91.275604 94.66144l0 0c-50.41011 0 -91.27559 -42.38138 -91.27559 -94.66144z" fill-rule="evenodd"/></g></svg>